# xmcd
#
# Track frame offsets:
#	150
#	12144
#	34176
#	42654
#	62611
#	74708
#	89384
#	102440
#	117681
#	127873
#	132853
#	146053
#	161638
#	175276
#	198303
#	213807
#	225316
#	238001
#	246815
#	257528
#
# Disc length: 3711 seconds
#
# Revision: 1
# Processed by: cddbd v1.5.2PL0 Copyright (c) Steve Scherf et al.
# Submitted via: audiograbber 1.83.01
#
DISCID=1f0e7d14
DTITLE=Various  - Soul My Guy
DYEAR=2002
DGENRE=Soul
TTITLE0=Joe Simon - The Chokin' Kind
TTITLE1=Solomon Burke - Sidewalks Fences And Walls
TTITLE2=Dee Clark - Hey Little Girl
TTITLE3=Jessie Hill - Ooh Poo Pah Doo
TTITLE4=Gladys Knight and The Pips - Letter Full Of Tears
TTITLE5=Percy Sledge - Warm And Tender Love
TTITLE6=The Ohio Players - A Little Soul Party
TTITLE7=Peggy Scott - Every Little Bit Hurts
TTITLE8=The Showmen - It will Stand
TTITLE9=James Brown - Hot Pants (Live)
TTITLE10=The Temptations - My Girl
TTITLE11=Ike and Tina Turner - Come Together
TTITLE12=Ella Washington - He Called Me baby
TTITLE13=Bobby Womack - That's The Way I feel About Cha
TTITLE14=Mary Wells - My Guy
TTITLE15=Aaron Neville - House On The Hill
TTITLE16=Betty Lavette - Let Me Down Easy
TTITLE17=Chris Kenner - I Like It Like That
TTITLE18=Deniece Williams - What Two Can Do
TTITLE19=Nina Simone - Ain't Got No/I Got Life (live)
EXTD=
EXTT0=
EXTT1=
EXTT2=
EXTT3=
EXTT4=
EXTT5=
EXTT6=
EXTT7=
EXTT8=
EXTT9=
EXTT10=
EXTT11=
EXTT12=
EXTT13=
EXTT14=
EXTT15=
EXTT16=
EXTT17=
EXTT18=
EXTT19=
PLAYORDER=
